<svg xmlns="http://www.w3.org/2000/svg" version="1.1" xmlns:xlink="http://www.w3.org/1999/xlink" xmlns:svgjs="http://svgjs.dev/svgjs" width="100%" height="100%" viewBox="0 0 1000 600"><rect width="1000" height="600" x="0" y="0" fill="#190018"/><g><circle r="166.66666666666666" cx="361.41311136881507" cy="383.63528993883654" fill="#fbf8be" transform="matrix(0.6418602468237203,0,0,0.6418602468237203,0,53.75971893352542)"/><path d="M322.32132199821325 414.0974996708754L322.32132199821325 412.28754506256365Q321.8688333461353 402.7206421329159 321.2870622220351 392.2810825171177Q320.7376117159405 381.80920228331405 319.57406946774006 372.0483756456328L319.57406946774006 372.0483756456328Q318.6690921635842 372.0483756456328 316.63289322923345 371.95141379161606Q314.59669429488275 371.8221313195939 312.52817474252646 371.14339834147694Q310.49197580817577 370.46466536336 308.90826552590295 369.43040558718184Q307.3245552436302 368.42846642900935 307.3245552436302 366.812435528731L307.3245552436302 366.812435528731Q307.3245552436302 364.3237479423023 308.55273872784176 361.70577788385134Q309.8132428300588 359.0878078254005 311.6231974383706 356.7284027109941Q313.4654726646879 354.33667697858215 315.37238912701633 352.39743989824814Q317.3116262073504 350.4582028179141 318.6690921635842 349.10073686168033L318.6690921635842 349.10073686168033L318.6690921635842 314.54999621372923Q318.6690921635842 311.6088199752226 321.64258902009635 310.1220715469666Q324.58376525860297 308.63532311871046 327.0724528450316 308.63532311871046L327.0724528450316 308.63532311871046Q333.43961459212824 308.63532311871046 335.2818898184456 311.6088199752226Q337.09184442675735 314.54999621372923 337.3180887527963 318.29918790237497Q337.5443330788353 322.04837959102076 337.415050606813 325.47436509961085Q337.3180887527963 328.8680299901954 339.80677633922494 329.77300729435126L339.80677633922494 329.77300729435126Q343.911494825932 327.73680836000057 347.53140404255544 325.47436509961085Q351.18363387718455 323.1796012212156 354.7065812397913 321.36964661290386Q358.2295286023981 319.55969200459214 361.9787202910439 318.42847037439725Q365.7279119796897 317.2972487442025 370.0265541744301 317.2972487442025L370.0265541744301 317.2972487442025Q372.0950737267864 317.2972487442025 374.4544788411927 317.74973739628035Q376.8462045736047 318.2022260483583 378.914724125961 319.20416520653083Q380.95092306031165 320.238424982709 382.3083890165455 321.9514177370041Q383.66585497277936 323.6320898732935 383.66585497277936 326.3793424037667L383.66585497277936 326.3793424037667Q383.66585497277936 331.3890381946296 382.3083890165455 335.59071853535335Q380.95092306031165 339.792398876077 378.914724125961 343.7678348907618Q376.8462045736047 347.7432709054464 374.58376131321495 351.5894244481089Q372.3213180528253 355.4678986087769 370.479042826508 359.5402964774784L370.479042826508 359.5402964774784Q371.4163407486694 359.5402964774784 373.9050283350981 359.8958232755396Q376.3937159215268 360.21902945559526 379.1409684519999 360.4775943996398Q381.8559003644675 360.70383872567885 384.3445879508962 361.0270449057345Q386.8655961553304 361.3825717037957 387.7705734594863 361.3825717037957L387.7705734594863 361.3825717037957Q391.3904826761098 362.06130468191265 396.2708959949504 363.64501496418546Q401.18362993179653 365.22872524645817 405.3853102725203 367.9759777769314Q409.586990613244 370.690909689399 412.5281668517506 374.44010137804474Q415.50166370826275 378.1892930666905 415.50166370826275 382.9727445315145L415.50166370826275 382.9727445315145Q415.50166370826275 388.17636403041075 413.56242662792874 393.41230414731257Q411.62318954759473 398.6482442642144 408.90825763512703 402.7206421329159L408.90825763512703 402.7206421329159Q408.0032803309712 404.1104287071552 406.1610051046539 406.5991162935839Q404.35105049634217 409.0878038800125 402.54109588803044 411.6088120844467Q400.73114127971866 414.0974996708754 399.2443928514625 416.0367367512094Q397.7576444232065 417.94365321353786 397.53140009716753 418.1698975395769L397.53140009716753 418.1698975395769L354.12481011569116 455.69413504404Q351.8623668553014 457.50408965235175 350.2786565730287 458.0535401584464Q348.6626256727503 458.63531128254664 346.40018241236066 458.63531128254664L346.40018241236066 458.63531128254664Q344.81647213008785 458.63531128254664 341.74601341955895 458.27978448448545Q338.67555470903017 457.9565783044297 335.50813414448453 457.27784532631284Q332.30839296193346 456.5991123481959 329.91666722952147 455.4678907180011Q327.5249414971095 454.3043484698007 327.29869717107056 452.49439386148896L327.29869717107056 452.49439386148896L322.32132199821325 414.0974996708754ZM339.80677633922494 398.8744885902534L344.5902278040488 438.40260441106176L344.81647213008785 438.40260441106176Q345.9476937602827 438.40260441106176 348.2101370206724 437.7238714329448Q350.5049008990676 437.04513845482796 351.18363387718455 436.366405476711L351.18363387718455 436.366405476711Q352.0886111813404 435.68767249859417 354.2540925877134 433.8777178902823Q356.3872533760808 432.03544266396506 358.90826158051505 429.9992437296143Q361.39694916694367 427.96304479526367 363.56243057331665 426.15309018695183Q365.7279119796897 424.31081496063456 366.85913360988445 423.6320819825176L366.85913360988445 423.6320819825176Q370.70528715254693 420.4646614179721 376.0705097414711 415.9074542791871Q381.4034117123896 411.3825677584078 386.1868631772135 406.2435894955226Q390.93799402403187 401.13693185064307 394.23469706059973 395.6747474077022Q397.53140009716753 390.24488358276705 397.53140009716753 385.0089434658651L397.53140009716753 385.0089434658651Q397.53140009716753 381.582957957275 395.2689568367779 379.67604149494656Q392.97419295838256 377.73680441461255 389.7098105398203 376.6055827844178Q386.4131075032525 375.4743611542229 382.89016014064566 375.1188343561617Q379.3672127780389 374.7633075581004 376.8462045736047 374.7633075581004L376.8462045736047 374.7633075581004Q372.0950737267864 374.7633075581004 367.99035524007934 376.37933845837875Q363.8856367533723 377.9630487406516 360.26572753674884 380.45173632708025Q356.61349770211973 382.9727445315145 353.34911528355747 386.04320324204326Q350.05241224698966 389.0813413345666 346.6264267383996 392.0548381910788L346.6264267383996 392.0548381910788Q345.9476937602827 392.7335711691956 344.68718965806556 393.41230414731257Q343.45900617385405 394.0910371254295 342.32778454365916 394.9960144295854Q341.16424229545873 395.90099173374125 340.38854746332515 396.83828965590266Q339.58053201318603 397.7432669600585 339.80677633922494 398.8744885902534L339.80677633922494 398.8744885902534ZM362.7544151231775 335.46143606333106L361.84943781902166 335.46143606333106Q361.39694916694367 335.68768038937 360.26572753674884 336.3664133674869Q359.13450590655395 337.0451463456038 358.0032842763592 337.9501236497597Q356.8720626461643 338.88742157192115 355.70852039796387 339.566154550038Q354.5772987677691 340.24488752815495 354.12481011569116 340.47113185419386L354.12481011569116 340.47113185419386Q354.12481011569116 340.47113185419386 351.73308438327916 342.2810864625057Q349.34135865086716 344.0910410708174 346.5294648843829 346.3858049492126Q343.68525049989296 348.6482482096024 341.293524767481 350.5874852899364Q338.9017990350691 352.49440175226476 338.9017990350691 352.7206460783038L338.9017990350691 352.7206460783038L338.9017990350691 370.2384210373211L339.80677633922494 370.2384210373211Q339.80677633922494 370.2384210373211 341.16424229545873 368.65471075504826Q342.5540288696982 367.0386798547699 344.4609453320266 364.9055190664025Q346.40018241236066 362.7400376600295 348.2101370206724 360.4775943996398Q350.05241224698966 358.1828305212446 351.18363387718455 356.82536456501083L351.18363387718455 356.82536456501083Q351.8623668553014 355.69414293481594 353.8016039356354 353.20545534838726Q355.70852039796387 350.68444714395304 356.1610090500418 350.0057141658362L356.1610090500418 350.0057141658362Q356.8720626461643 348.6482482096024 358.0032842763592 346.61204927525165Q359.13450590655395 344.54352972289536 360.13644506472656 342.6366132605669Q361.1707048409047 340.6973761802329 361.9787202910439 339.2106277519768Q362.7544151231775 337.7238793237207 362.7544151231775 337.7238793237207L362.7544151231775 337.7238793237207L362.7544151231775 335.46143606333106Z " fill="#190018" transform="matrix(0.6418602468237203,0,0,0.6418602468237203,0,53.75971893352542)"/><path d="M622.0553100454858 403.79585388330094L622.0553100454858 402.5114503933784Q621.7342091730052 395.72246051807343 621.3213651941016 388.314204674413Q620.9314569918037 380.88301305414683 620.1057690339962 373.9564085192074L620.1057690339962 373.9564085192074Q619.463567289035 373.9564085192074 618.0186133628722 373.88760118939007Q616.5736594367092 373.7958580829671 615.1057697339406 373.3142067742461Q613.6608158077778 372.8325554655251 612.5369627540956 372.0986106141408Q611.4131097004133 371.38760153936227 611.4131097004133 370.2408127090743L611.4131097004133 370.2408127090743Q611.4131097004133 368.4747579104308 612.2846692114322 366.6169600053642Q613.1791644990569 364.7591621002977 614.4635679889793 363.0848504080772Q615.7709072555077 361.38760293925094 617.1241180752476 360.01145634290543Q618.5002646715932 358.6353097465598 619.463567289035 357.67200712911784L619.463567289035 357.67200712911784L619.463567289035 333.1536619375606Q619.463567289035 331.0665062664364 621.573658736765 330.0114605425715Q623.6608144078891 328.95641481870655 625.4268692065326 328.95641481870655L625.4268692065326 328.95641481870655Q629.9452171978674 328.95641481870655 631.2525564643956 331.0665062664364Q632.5369599543181 333.1536619375606 632.6975103905585 335.81421202382876Q632.8580608267988 338.47476211009695 632.7663177203758 340.9059544303074Q632.6975103905585 343.3142109739122 634.463565189202 343.95641271887354L634.463565189202 343.95641271887354Q637.3764088181335 342.5114587927106 639.9452157979786 340.9059544303074Q642.5369585544295 339.2775142912985 645.0369582044573 337.99311080137596Q647.5369578544851 336.7087073114534 650.1975079407532 335.9059551302518Q652.8580580270213 335.10320294905017 655.9085163155873 335.10320294905017L655.9085163155873 335.10320294905017Q657.3764060183561 335.10320294905017 659.0507177105765 335.4243038215308Q660.7479651794027 335.7454046940115 662.2158548821714 336.45641376879Q663.6608088083342 337.1903586201743 664.6241114257762 338.4059547802796Q665.5874140432181 339.59861516377913 665.5874140432181 341.54815617526873L665.5874140432181 341.54815617526873Q665.5874140432181 345.1032015491615 664.6241114257762 348.0848525079103Q663.6608088083342 351.06650346665907 662.2158548821714 353.88760398916753Q660.7479651794027 356.708704511676 659.1424608169996 359.43806192776134Q657.5369564545964 362.1903551204526 656.229617188068 365.08026297277826L656.229617188068 365.08026297277826Q656.8947547096351 365.08026297277826 658.6608095082786 365.3325565154417Q660.4268643069222 365.56191428149924 662.3764053184117 365.74540049434535Q664.3030105532955 365.9059509305857 666.0690653519391 366.1353086966432Q667.8580559271884 366.38760223930666 668.5002576721496 366.38760223930666L668.5002576721496 366.38760223930666Q671.0690646519947 366.86925354802753 674.5323669194644 367.9931066017098Q678.0186049635399 369.116959655392 681.0002559222887 371.0665006668816Q683.9819068810375 372.99310590176543 686.0690625521617 375.65365598803356Q688.1791539998915 378.3142060743017 688.1791539998915 381.70870101195425L688.1791539998915 381.70870101195425Q688.1791539998915 385.40136104548156 686.803007403546 389.11695685561466Q685.4268608072003 392.83255266574776 683.5002555723165 395.72246051807343L683.5002555723165 395.72246051807343Q682.8580538273552 396.7086989121212 681.5507145608269 398.4747537107647Q680.2663110709044 400.24080850940817 678.9819075809819 402.02979908465744Q677.6975040910593 403.79585388330094 676.6424583671943 405.17200047964656Q675.5874126433293 406.5252112993864 675.426862207089 406.6857617356266L675.426862207089 406.6857617356266L644.6241142255535 433.3141983749138Q643.0186098631505 434.59860186483644 641.8947568094682 434.9885100671343Q640.7479679791802 435.40135404603797 639.1424636167769 435.40135404603797L639.1424636167769 435.40135404603797Q638.0186105630947 435.40135404603797 635.8397117855476 435.14906050337464Q633.6608130080003 434.919702737317 631.413106900636 434.4380514285961Q629.1424650166657 433.9564001198751 627.4452175478394 433.1536479386735Q625.7479700790132 432.3279599808662 625.5874196427729 431.04355649094356L625.5874196427729 431.04355649094356L622.0553100454858 403.79585388330094ZM634.463565189202 392.9931031019881L637.8580601268544 421.04355789083235L638.0186105630947 421.04355789083235Q638.8213627442963 421.04355789083235 640.4268671066995 420.56190658211136Q642.0553072457085 420.0802552733904 642.5369585544295 419.5986039646694L642.5369585544295 419.5986039646694Q643.1791602993908 419.1169526559485 644.7158573319766 417.8325491660259Q646.2296185879568 416.5252098994976 648.0186091632061 415.0802559733348Q649.7846639618496 413.63530204717193 651.3213609944355 412.3508985572493Q652.8580580270213 411.043559290721 653.660810208223 410.56190798200004L653.660810208223 410.56190798200004Q656.3901676243083 408.31420187463556 660.1975065408645 405.08025737322345Q663.9819096808149 401.8692486484171 667.3764046184674 398.22246016810124Q670.7479637795141 394.59860746439125 673.0874129933015 390.7224612180178Q675.426862207089 386.8692507482502 675.426862207089 383.1536549381171L675.426862207089 383.1536549381171Q675.426862207089 380.7224626179065 673.8213578446858 379.36925179816666Q672.1929177056769 377.99310520182115 669.8764042684952 377.1903530206195Q667.5369550547077 376.38760083941787 665.0369554046798 376.13530729675455Q662.536955754652 375.8830137540912 660.7479651794027 375.8830137540912L660.7479651794027 375.8830137540912Q657.3764060183561 375.8830137540912 654.4635623894246 377.0298025843792Q651.550718760493 378.15365563806137 648.981911780648 379.919710436705Q646.3901690241971 381.70870101195425 644.0736555870153 383.8875997895014Q641.7342063732278 386.04356279044276 639.3030140530173 388.1536542381727L639.3030140530173 388.1536542381727Q638.8213627442963 388.6353055468937 637.9268674566717 389.11695685561466Q637.0553079456529 389.59860816433553 636.2525557644512 390.24080990929684Q635.4268678066439 390.88301165425815 634.8764091681057 391.54814917582513Q634.3030147529616 392.19035092078644 634.463565189202 392.9931031019881L634.463565189202 392.9931031019881ZM650.7479665792914 347.9931094014872L650.1057648343302 347.9931094014872Q649.7846639618496 348.1536598377275 648.981911780648 348.6353111464485Q648.1791595994464 349.11696245516947 647.3764074182448 349.7591642001308Q646.5736552370431 350.42430172169776 645.7479672792358 350.90595303041874Q644.9452150980342 351.3876043391397 644.6241142255535 351.54815477537994L644.6241142255535 351.54815477537994Q644.6241142255535 351.54815477537994 642.9268667567273 352.83255826530257Q641.2296192879012 354.1169617552251 639.2342067232 355.745401894234Q637.2158583818932 357.3509062566372 635.5186109130669 358.7270528529828Q633.8213634442407 360.08026367272265 633.8213634442407 360.240814108963L633.8213634442407 360.240814108963L633.8213634442407 372.6720050292848L634.463565189202 372.6720050292848Q634.463565189202 372.6720050292848 635.4268678066439 371.5481519756026Q636.4131062006916 370.40136314531463 637.7663170204314 368.88760188933446Q639.1424636167769 367.3509048567485 640.4268671066995 365.74540049434535Q641.7342063732278 364.1169603553364 642.5369585544295 363.15365773789443L642.5369585544295 363.15365773789443Q643.0186098631505 362.3509055566929 644.394756459496 360.5848507580494Q645.7479672792358 358.79586018280014 646.0690681517165 358.31420887407916L646.0690681517165 358.31420887407916Q646.5736552370431 357.3509062566372 647.3764074182448 355.90595233047435Q648.1791595994464 354.43806262770573 648.8901686742249 353.0848518079659Q649.6241135256092 351.70870521162027 650.1975079407532 350.6536594877553Q650.7479665792914 349.59861376389046 650.7479665792914 349.59861376389046L650.7479665792914 349.59861376389046L650.7479665792914 347.9931094014872ZM701.8718126335302 428.3141990748582L701.8718126335302 428.3141990748582Q701.5507117610496 422.51144759360096 700.839702686271 412.7408067595473Q700.1057578348866 402.9931017020993 699.211262547262 392.5114517932671Q698.3397030362431 382.0298018844348 697.3534646421955 372.6720050292848Q696.3901620247535 363.31420817413476 695.7479602797923 358.1536584378388L695.7479602797923 358.1536584378388Q695.7479602797923 356.0665027667147 697.674565514676 355.4243010217535Q699.6241065261656 354.7591635001864 701.3901613248092 354.7591635001864L701.3901613248092 354.7591635001864Q703.6608032087795 354.7591635001864 706.1608028588073 356.0665027667147Q708.6608025088351 357.3509062566372 709.3030042537963 359.59861236400167L709.3030042537963 359.59861236400167Q709.3030042537963 360.240814108963 709.4635546900366 361.93806157778926Q709.624105126277 363.6353090466154 709.6929124560943 365.4013638452589Q709.7846555625173 367.1903544205082 709.9452059987576 368.88760188933446Q710.1057564349979 370.56191358155496 710.1057564349979 371.22705110312194L710.1057564349979 371.22705110312194Q710.1057564349979 372.1903537205639 710.1057564349979 372.6720050292848Q710.1057564349979 373.15365633800576 710.1057564349979 373.5665003169094Q710.1057564349979 373.9564085192074 710.2663068712383 374.43805982792827Q710.4268573074786 374.91971113664925 710.7479581799593 376.0664999669372L710.7479581799593 376.0664999669372Q711.0690590524399 375.7224633178509 711.4819030313436 375.2408120091299Q711.8718112336414 374.7591607004089 712.0323616698818 374.5986102641686L712.0323616698818 374.5986102641686Q714.6241044263326 370.9059502306413 717.0323609699374 368.06191393152704Q719.463553290148 365.2408134090186 722.0323602699931 362.7408137589908Q724.6241030264439 360.240814108963 727.766304421433 357.4197135864545Q730.9085058164221 354.59861306394606 735.1057529352762 350.90595303041874L735.1057529352762 350.90595303041874Q736.069055552718 350.0802650726113 736.550706861439 349.69035687031345Q737.03235817016 349.2775128914098 737.4452021490637 349.04815512535214Q737.8351103513615 348.7958615826888 738.3167616600825 348.7270542528716Q738.7984129688035 348.6353111464485 739.6241009266108 348.6353111464485L739.6241009266108 348.6353111464485Q742.3534583426963 348.6353111464485 745.1745588652047 350.4931090515151Q747.9956593877132 352.3509069565816 747.9956593877132 355.5848514579937L747.9956593877132 355.5848514579937Q747.9956593877132 356.708704511676 747.1929072065116 357.9243006717813Q746.39015502531 359.1169610552808 745.2663019716277 360.17200677914576Q744.1195131413398 361.2270525030106 742.9268527578403 362.02980468421225Q741.711256597735 362.8325568654139 740.7479539802931 363.15365773789443L740.7479539802931 363.15365773789443Q736.550706861439 366.86925354802753 731.871808433864 371.6169593054198Q727.192910006289 376.38760083941787 723.1562133236753 381.86925144819446Q719.1424524176673 387.35090205697117 716.5507096612165 393.3142039744686Q713.9819026813714 399.2775058919662 713.9819026813714 405.2408078094638L713.9819026813714 405.2408078094638Q713.9819026813714 410.72245841824036 714.7846548625729 416.0435585907766Q715.5874070437745 421.364658763313 715.5874070437745 426.8463093720896L715.5874070437745 426.8463093720896L715.5874070437745 432.4885104171065Q714.3030035538519 433.7958496836348 713.3167651598043 434.59860186483644Q712.3534625423624 435.40135404603797 710.5874077437189 435.40135404603797L710.5874077437189 435.40135404603797Q707.8351145510277 435.40135404603797 705.2663075711826 433.0619048322505Q702.6745648147318 430.722455618463 701.8718126335302 428.3141990748582ZM759.761712786468 429.11695125605974L759.761712786468 429.11695125605974Q758.1562084240649 412.9931003022106 757.0323553703826 401.5252119993307Q755.9085023167003 390.0802594730565 755.1057501354987 382.35090275691545Q754.2800621776914 374.5986102641686 753.7296035391531 370.01145494301664Q753.1562091240091 365.4013638452589 752.8351082515285 363.0848504080772Q752.5140073790479 360.74540119428974 752.3534569428076 359.9197132364823Q752.1929065065673 359.1169610552808 752.1929065065673 358.95641061904047L752.1929065065673 358.95641061904047L752.1929065065673 358.31420887407916Q752.1929065065673 356.54815407543566 753.7296035391531 355.33255791533037Q755.2663005717391 354.1169617552251 756.8718049341422 354.1169617552251L756.8718049341422 354.1169617552251Q759.280061477747 354.1169617552251 762.1011620002555 354.9197139364267Q764.922262522764 355.745401894234 765.9085009168116 358.31420887407916L765.9085009168116 358.31420887407916Q767.3534548429745 366.22705180306633 767.9268492581185 374.27750939168806Q768.4773078966567 382.35090275691545 768.8901518755604 390.33255301571984Q769.2800600778584 398.31420327452435 770.0140049292427 406.36466086314596Q770.747949780627 414.43805422837346 772.6745550155108 422.32796138075486L772.6745550155108 422.32796138075486Q772.6745550155108 422.6719980298413 772.9039127815684 423.63530064728315Q773.1562063242317 424.5986032647251 773.4084998668951 425.7224563184073Q773.6378576329527 426.8463093720896 773.798408069193 427.8325477661372Q773.9589585054333 428.7958503835792 773.9589585054333 429.11695125605974L773.9589585054333 429.11695125605974L773.9589585054333 429.4380521285404Q773.9589585054333 429.5986025647807 774.1195089416736 429.75915300102105L774.1195089416736 429.75915300102105Q774.1195089416736 431.68575823590487 772.3534541430301 433.63529924739447Q770.5873993443867 435.5619044822783 768.637858332897 435.24080360979764L768.637858332897 435.24080360979764Q768.1562070241761 435.0802531735573 766.2984091191096 434.66740919465366Q764.440611214043 434.2775009923558 763.7984094690818 433.9564001198751L763.7984094690818 433.9564001198751Q763.3167581603608 433.7958496836348 762.5140059791592 433.2224552684908Q761.7112537979575 432.64906085334684 760.9773089465733 432.0068591083855Q760.2662998717948 431.3646573634242 759.761712786468 430.5619051822227Q759.280061477747 429.75915300102105 759.761712786468 429.11695125605974ZM750.7479525804043 311.5481603749348L750.7479525804043 311.5481603749348Q750.7479525804043 310.4243073212526 752.6057504854709 309.529812033628Q754.4406126139316 308.63531674600335 755.4268510079794 308.63531674600335L755.4268510079794 308.63531674600335Q757.8351075515842 308.63531674600335 760.816758510333 310.0114633423489Q763.7984094690818 311.3876099386945 763.7984094690818 314.13990313138567L763.7984094690818 314.13990313138567Q763.7984094690818 316.86926054747113 763.0874003943032 317.83256316491304Q762.3534555429188 318.79586578235495 759.6011623502277 318.79586578235495L759.6011623502277 318.79586578235495Q756.7112544979019 318.79586578235495 753.7296035391531 316.86926054747113Q750.7479525804043 314.9426553125873 750.7479525804043 311.5481603749348ZM902.812151476592 449.2774988925227L902.812151476592 449.2774988925227Q900.4038949329873 439.59860116489205 899.3488492091224 428.7041072771561Q898.2938034852574 417.8325491660259 897.9727026127767 408.31420187463556L897.9727026127767 408.31420187463556Q896.527748686614 409.1169540558372 895.564446069172 410.8142015246635Q894.6011434517301 412.51144899348964 893.8671986003458 414.34631112195046Q893.1332537489615 416.20410902701695 892.3305015677598 418.06190693208356Q891.5277493865583 419.91970483715005 890.403896332876 421.2041083270727L890.403896332876 421.2041083270727Q886.6883005227429 425.40135544592664 882.3305029676486 428.8646577133964Q877.9727054125542 432.3279599808662 872.0094034950567 432.3279599808662L872.0094034950567 432.3279599808662Q867.1699546312414 432.3279599808662 862.4222488738491 430.24080430974203Q857.651607339851 428.1536486386179 853.8672041999006 424.66741059454233Q850.0828010599503 421.2041083270727 847.7433518461627 416.68576033573794Q845.4039026323752 412.190348121009 845.4039026323752 407.1903488209534L845.4039026323752 407.1903488209534Q845.4039026323752 400.24080850940817 847.6516087397397 393.0619104318053Q849.9222506237099 385.88301235420255 853.156195125122 379.75916000046465L853.156195125122 379.75916000046465Q853.7983968700834 378.63530694678235 855.1516076898232 376.4564081692352Q856.5277542861687 374.27750939168806 858.0644513187547 372.0298032843236Q859.6011483513406 369.7591614003533 860.8855518412631 367.9013634952867Q862.1699553311856 366.066501366826 862.6516066399066 365.56191428149924L862.6516066399066 365.56191428149924L880.2433472965243 347.0298067840453Q883.7754568938115 343.3142109739122 889.1883001727707 341.61696350508595Q894.6011434517301 339.94265181286556 899.2571061026994 339.59861516377913L899.2571061026994 339.59861516377913Q901.68829842291 339.2775142912985 903.293802785313 340.33256001516344Q904.922242924322 341.3876057390284 904.922242924322 343.7958622826332L904.922242924322 343.7958622826332Q904.922242924322 345.7454032941228 903.3855458917361 346.777513241382Q901.8488488591503 347.83255896524696 899.761693188026 348.47476071020816Q897.6516017402961 349.11696245516947 895.4038956329317 349.69035687031345Q893.1332537489615 350.26375128545743 891.8488502590388 351.06650346665907L891.8488502590388 351.06650346665907Q883.2938055850905 357.9931080015985 876.367201050151 366.6169600053642Q869.4405965152115 375.2408120091299 863.9589459064349 384.5986088642799L863.9589459064349 384.5986088642799Q862.1699553311856 390.24080990929684 860.2433500963019 395.4013596455928Q858.316744861418 400.5619093818888 858.316744861418 406.6857617356266L858.316744861418 406.6857617356266Q858.316744861418 407.1903488209534 858.3855521912353 408.8646605131739Q858.4772952976583 410.56190798200004 858.4772952976583 411.043559290721L858.4772952976583 411.043559290721Q860.0827996600616 414.91970553709444 863.3855514912909 418.15365003850656Q866.6883033225204 421.364658763313 871.2066513138551 421.364658763313L871.2066513138551 421.364658763313Q873.4543574212195 421.364658763313 875.88554974143 419.91970483715005Q878.2938062850349 418.4747509109872 879.6011455515631 416.3646594632573L879.6011455515631 416.3646594632573Q880.2433472965243 415.56190728205576 881.8488516589276 413.15365073845095Q883.4543560213309 410.72245841824036 885.1516034901571 407.993101002155Q886.8488509589832 405.2408078094638 888.3855479915692 402.83255126585897Q889.9222450241551 400.4013589456485 890.403896332876 399.4380563282065L890.403896332876 399.4380563282065Q890.885547641597 398.4747537107647 891.7800429292216 396.9380566781787Q892.6516024402405 395.4013596455928 893.3855472916248 393.95640571942994Q894.0965563664034 392.5114517932671 894.6699507815473 391.2958556331618Q895.2433451966914 390.0802594730565 895.2433451966914 389.9197090368162L895.2433451966914 389.9197090368162L895.2433451966914 389.277507291855Q892.9727033127211 389.9197090368162 890.7249972053567 390.33255301571984Q888.4543553213865 390.7224612180178 886.0460987777817 390.7224612180178L886.0460987777817 390.7224612180178Q884.6011448516189 390.7224612180178 882.9038973827926 390.49310345196017Q881.2066499139663 390.24080990929684 879.6699528813805 389.59860816433553Q878.1332558487945 388.95640641937433 877.1011459015353 387.83255336569204Q876.0461001776704 386.70870031200985 876.0461001776704 384.75915930052025L876.0461001776704 384.75915930052025Q876.0461001776704 383.9564071193186 876.2066506139107 382.83255406563643Q876.367201050151 381.70870101195425 876.848852358872 381.04356349038716L876.848852358872 381.04356349038716Q878.1332558487945 379.919710436705 880.3121546263418 379.36925179816666Q882.4910534038889 378.7958573830227 884.9910530539167 378.56649961696513Q887.4910527039445 378.3142060743017 889.9910523539723 378.06191253163837Q892.4910520040002 377.8325547655808 894.6011434517301 377.0298025843792L894.6011434517301 377.0298025843792Q896.3671982503737 376.38760083941787 898.7754547939784 375.3325551155529Q901.206647114189 374.27750939168806 903.8671972004571 373.2224636678231Q906.5277472867252 372.1903537205639 909.2571047028106 371.38760153936227Q912.0093978955018 370.56191358155496 914.2571040028663 370.2408127090743L914.2571040028663 370.2408127090743Q914.7387553115873 370.2408127090743 915.6332505992119 370.56191358155496Q916.5277458868364 370.9059502306413 917.4910485042784 371.38760153936227Q918.4543511217204 371.86925284808325 919.0965528666816 372.41971148662145Q919.7387546116429 372.99310590176543 919.7387546116429 373.4747572104864L919.7387546116429 373.4747572104864Q919.7387546116429 377.0298025843792 917.8121493767591 378.383013404119Q915.8855441418752 379.75916000046465 912.8121500767035 381.70870101195425L912.8121500767035 381.70870101195425Q913.2938013854243 388.1536542381727 912.4222418744055 394.59860746439125Q911.5277465867808 401.0435606906097 911.5277465867808 407.51144969343403L911.5277465867808 407.51144969343403Q911.5277465867808 415.2408064095751 911.8488474592615 423.3141997748025Q912.1699483317421 431.3646573634242 913.4543518216648 438.95639941993073L913.4543518216648 438.95639941993073Q913.614902257905 439.2775002924114 913.9360031303855 440.653646888757Q914.2571040028663 442.00685770849685 914.66994798177 443.47474741126547Q915.0827919606736 444.9197013374283 915.4038928331543 446.2041048273508Q915.7249937056349 447.48850831727344 915.7249937056349 447.8096091897541L915.7249937056349 447.8096091897541L915.7249937056349 448.1536458388404Q915.7249937056349 450.4013519462049 914.0277462368088 452.58025072375204Q912.3304987679825 454.7591495012993 910.082792660618 454.7591495012993L910.082792660618 454.7591495012993Q907.6516003404075 454.7591495012993 905.4727015628603 453.13070936229036Q903.293802785313 451.5252049998872 902.812151476592 449.2774988925227ZM934.5782020755695 429.11695125605974L934.5782020755695 429.11695125605974Q932.9726977131663 412.9931003022106 931.8488446594841 401.5252119993307Q930.7249916058018 390.0802594730565 929.8993036479945 382.35090275691545Q929.0965514667929 374.5986102641686 928.5460928282547 370.01145494301664Q927.9726984131106 365.4013638452589 927.6515975406301 363.0848504080772Q927.3304966681493 360.74540119428974 927.1699462319091 359.9197132364823Q927.0093957956688 359.1169610552808 927.0093957956688 358.95641061904047L927.0093957956688 358.95641061904047L927.0093957956688 358.31420887407916Q927.0093957956688 356.54815407543566 928.5460928282547 355.33255791533037Q930.0598540842348 354.1169617552251 931.6882942232438 354.1169617552251L931.6882942232438 354.1169617552251Q934.0965507668485 354.1169617552251 936.917651289357 354.9197139364267Q939.7387518118654 355.745401894234 940.7249902059132 358.31420887407916L940.7249902059132 358.31420887407916Q942.169944132076 366.22705180306633 942.7204027706142 374.27750939168806Q943.2937971857582 382.35090275691545 943.7066411646618 390.33255301571984Q944.0965493669598 398.31420327452435 944.8304942183441 406.36466086314596Q945.5415032931227 414.43805422837346 947.4910443046123 422.32796138075486L947.4910443046123 422.32796138075486Q947.4910443046123 422.6719980298413 947.7204020706698 423.63530064728315Q947.9726956133333 424.5986032647251 948.2020533793908 425.7224563184073Q948.4543469220542 426.8463093720896 948.6148973582946 427.8325477661372Q948.7754477945348 428.7958503835792 948.7754477945348 429.11695125605974L948.7754477945348 429.11695125605974L948.7754477945348 429.4380521285404Q948.7754477945348 429.5986025647807 948.9359982307752 429.75915300102105L948.9359982307752 429.75915300102105Q948.9359982307752 431.68575823590487 947.1699434321316 433.63529924739447Q945.3809528568823 435.5619044822783 943.4543476219986 435.24080360979764L943.4543476219986 435.24080360979764Q942.9726963132777 435.0802531735573 941.1148984082112 434.66740919465366Q939.2571005031446 434.2775009923558 938.6148987581832 433.9564001198751L938.6148987581832 433.9564001198751Q938.1332474494623 433.7958496836348 937.3304952682607 433.2224552684908Q936.5277430870591 432.64906085334684 935.7937982356748 432.0068591083855Q935.0598533842905 431.3646573634242 934.5782020755695 430.5619051822227Q934.0965507668485 429.75915300102105 934.5782020755695 429.11695125605974ZM925.5644418695059 311.5481603749348L925.5644418695059 311.5481603749348Q925.5644418695059 310.4243073212526 927.3993039979667 309.529812033628Q929.2571019030332 308.63531674600335 930.2204045204752 308.63531674600335L930.2204045204752 308.63531674600335Q932.6515968406857 308.63531674600335 935.6332477994343 310.0114633423489Q938.6148987581832 311.3876099386945 938.6148987581832 314.13990313138567L938.6148987581832 314.13990313138567Q938.6148987581832 316.86926054747113 937.8809539067989 317.83256316491304Q937.1699448320204 318.79586578235495 934.4176516393292 318.79586578235495L934.4176516393292 318.79586578235495Q931.5277437870035 318.79586578235495 928.5460928282547 316.86926054747113Q925.5644418695059 314.9426553125873 925.5644418695059 311.5481603749348ZM993.1332397500744 391.0435620904985L992.4910380051131 390.24080990929684Q991.0231483023445 392.83255266574776 989.1653503972778 396.45640536945774Q987.330488268817 400.08025807316784 985.2203968210873 404.1857620855988Q983.133241149963 408.31420187463556 980.6332414999353 412.41970588706664Q978.1332418499074 416.5252098994976 975.4726917636393 419.91970483715005Q972.8121416773712 423.3141997748025 969.8992980484396 425.6536489885901Q967.0093901961139 427.99309820237755 963.935996130942 428.47474951109854L963.935996130942 428.47474951109854Q962.6515926410195 428.47474951109854 961.0231525020106 428.2224559684351Q959.4176481396074 427.99309820237755 957.8121437772041 427.4197037872336Q956.2066394148011 426.8463093720896 955.151593690936 425.8141994248304Q954.0965479670712 424.75915370096544 954.0965479670712 422.99309890232195L954.0965479670712 422.99309890232195Q954.2570984033115 406.5252112993864 956.5277402872817 393.0619104318053Q958.7754463946461 379.5986095642243 963.6148952584615 369.36925319805545Q968.4543441222768 359.1169610552808 976.0231504021775 352.3509069565816Q983.614892458684 345.5848528578825 994.4176432399969 342.6720092289509L994.4176432399969 342.6720092289509Q994.7387441124775 342.6720092289509 995.6332394001022 342.6032018991337Q996.504798911121 342.5114587927106 996.8258997836018 342.5114587927106L996.8258997836018 342.5114587927106Q1001.665348647417 342.35090835647026 1003.8442474249642 346.9380636776223Q1006.0231462025114 351.54815477537994 1007.0781919263763 361.4564102690683Q1008.1332376502413 371.38760153936227 1008.5231458525392 386.9380580780674Q1008.935989831443 402.5114503933784 1010.2203933213655 424.27750239224446L1010.2203933213655 424.27750239224446Q1010.7020446300863 426.04355719088795 1010.7937877365094 427.32796068081046Q1010.8625950663268 428.63529994733886 1010.8625950663268 430.40135474598236L1010.8625950663268 430.40135474598236Q1010.8625950663268 432.83254706619283 1009.4176411401639 434.02520744969235Q1007.972687214001 435.24080360979764 1005.7020453300307 435.24080360979764L1005.7020453300307 435.24080360979764Q1001.0231469024558 435.24080360979764 999.096541667572 432.64906085334684Q997.1470006560824 430.0802538735017 996.504798911121 425.7224563184073L996.504798911121 425.7224563184073Q996.504798911121 425.56190588216697 996.2754411450634 423.1536493385623Q996.0231476024002 420.7224570183517 995.6332394001022 417.5802556233626Q995.2203954211985 414.43805422837346 994.8992945487179 411.20410972696135Q994.5781936762372 407.993101002155 994.4176432399969 405.8830095544251L994.4176432399969 405.8830095544251L994.4176432399969 405.2408078094638Q994.0965423675163 403.6353034470606 994.0047992610934 401.20411112685Q993.9359919312759 398.79585458324533 993.6148910587954 396.5252126992751L993.6148910587954 396.5252126992751Q993.2937901863147 393.7958552831896 993.1332397500744 391.0435620904985L993.1332397500744 391.0435620904985ZM988.9359926312203 358.31420887407916L988.9359926312203 358.31420887407916Q984.578195076126 361.54815337549127 980.3809479572718 367.02980398426786Q976.1837008384178 372.51145459304445 974.4176460397742 377.6720043293405L974.4176460397742 377.6720043293405Q973.6148938585728 380.0802608729452 972.6515912411309 384.27750799179927Q971.6882886236889 388.47475511065335 970.9543437723046 392.5802591230843Q970.2203989209203 396.7086989121212 969.7387476121993 400.17200117959084Q969.2570963034783 403.6353034470606 969.2570963034783 404.59860606450246L969.2570963034783 404.59860606450246Q969.4176467397186 404.59860606450246 969.6699402823821 404.2775051920219Q969.8992980484396 403.95640431954126 970.05984848468 403.79585388330094L970.05984848468 403.79585388330094Q980.0598470847913 394.11695615567027 984.1653510972222 382.90136139545365Q988.293790886259 371.7087024118429 988.9359926312203 358.31420887407916ZM1036.0231420028454 412.8325498659703L1036.0231420028454 412.190348121009L1018.2937866865929 369.116959655392Q1018.1332362503525 368.9564092191517 1018.1332362503525 368.79585878291135L1018.1332362503525 368.79585878291135L1018.1332362503525 368.15365703795015Q1018.1332362503525 366.7087031117872 1019.0047957613714 365.65365738792235Q1019.8992910489961 364.5986116640574 1021.1836945389188 363.79585948285575L1021.1836945389188 363.79585948285575Q1021.5047954113993 363.79585948285575 1022.4680980288413 363.7270521530385Q1023.4543364228889 363.6353090466154 1023.7754372953696 363.6353090466154L1023.7754372953696 363.6353090466154Q1026.8258955839356 363.6353090466154 1028.2020421802813 364.5986116640574Q1029.5781887766266 365.56191428149924 1031.8258948839912 367.1903544205082L1031.8258948839912 367.1903544205082Q1032.4680966289525 369.598610964113 1033.5231423528176 372.1903537205639Q1034.5781880766826 374.7591607004089 1036.0919493326626 378.72705005320546Q1037.6286463652486 382.6720036293961 1040.059838685459 388.6353055468937Q1042.4680952290637 394.59860746439125 1046.183691039197 403.79585388330094L1046.183691039197 403.79585388330094L1046.9864432203985 404.59860606450246Q1047.4680945291193 403.79585388330094 1047.880938508023 402.5114503933784Q1048.2708467103212 401.20411112685 1049.3258924341858 397.9931024020437Q1050.3809381580509 394.7591579006316 1052.3075433929348 388.6353055468937Q1054.2570844044244 382.5114531931558 1057.7891940017112 372.0298032843236L1057.7891940017112 372.0298032843236Q1059.0735974916338 369.91971183659365 1059.5781845769607 367.1903544205082Q1060.0598358856817 364.43806122781706 1060.7020376306427 362.02980468421225Q1061.344239375604 359.59861236400167 1062.7203859719498 357.9931080015985Q1064.0735967916894 356.38760363919533 1066.986440420621 356.38760363919533L1066.986440420621 356.38760363919533Q1069.7387336133122 356.38760363919533 1072.3075405931572 358.5665024167425Q1074.8992833496081 360.74540119428974 1074.8992833496081 363.79585948285575L1074.8992833496081 363.79585948285575Q1074.8992833496081 365.2408134090186 1073.9130449555605 366.93806087784486Q1072.9497423381185 368.63530834667114 1071.9864397206766 369.7591614003533L1071.9864397206766 369.7591614003533L1052.3075433929348 435.24080360979764L1051.3442407754928 435.24080360979764Q1050.7020390305315 435.24080360979764 1049.4864428704263 435.0802531735573Q1048.2708467103212 434.919702737317 1046.9864432203985 434.50685875841333Q1045.702039730476 434.11695055611546 1044.738737113034 433.63529924739447Q1043.7524987189863 433.1536479386735 1043.5919482827462 432.4885104171065L1043.5919482827462 432.4885104171065L1036.0231420028454 412.8325498659703ZM1149.2341353288757 389.4380577280952L1149.2341353288757 389.4380577280952Q1148.913034456395 392.35090135702677 1148.5001904774915 393.95640571942994Q1148.1102822751936 395.5619100818331 1147.1469796577517 396.8692493483614Q1146.160741263704 398.153652838284 1144.3946864650607 399.52979943462964Q1142.628631666417 400.88301025436937 1139.5552376012452 403.3830099043973Q1136.4818435360735 405.8830095544251 1131.9864313213443 409.91970623703884Q1127.46808333001 413.9564029196525 1121.0001943271855 420.40135614587103L1121.0001943271855 420.40135614587103Q1118.4313873473402 422.8325484660816 1115.6790941546492 425.40135544592664Q1112.9497367385638 427.99309820237755 1109.9680857798148 429.9885107670787Q1106.9864348210663 432.0068591083855 1103.752490319654 433.3141983749138Q1100.5185458182418 434.59860186483644 1096.986436220955 434.59860186483644L1096.986436220955 434.59860186483644Q1090.0368959094098 434.59860186483644 1086.8258871846033 429.9197034372614Q1083.591942683191 425.2408050096864 1083.591942683191 419.1169526559485L1083.591942683191 419.1169526559485Q1083.591942683191 415.0802559733348 1083.8442362258547 412.3508985572493Q1084.0735939919123 409.5986053645582 1085.0368966093542 405.2408078094638L1085.0368966093542 405.2408078094638Q1083.2708418107104 403.6353034470606 1081.9864383207878 402.4197072869553Q1080.7020348308654 401.20411112685 1080.7020348308654 399.1169554557259L1080.7020348308654 399.1169554557259Q1080.7020348308654 397.19035022084205 1081.5735943418845 396.5252126992751Q1082.468089629509 395.88301095431376 1083.6836857896142 395.6536531882562Q1084.8763461731137 395.4013596455928 1086.0231350034019 395.0802587731121Q1087.146988057084 394.7591579006316 1087.628639365805 393.7958552831896L1087.628639365805 393.7958552831896Q1087.9497402382854 392.83255266574776 1088.8442355259103 390.24080990929684Q1089.7157950369292 387.6720029294517 1090.7020334309768 384.85090240694325Q1091.6653360484188 382.0298018844348 1092.5368955594377 379.529802234407Q1093.4313908470622 377.0298025843792 1093.7524917195428 376.0664999669372L1093.7524917195428 376.0664999669372Q1094.876344773225 373.3142067742461 1096.2524913695706 370.49310625173763Q1097.6286379659164 367.67200572922917 1099.4864358709829 365.4013638452589Q1101.3442337760494 363.15365773789443 1103.8442334260772 361.7087038117316Q1106.344233076105 360.240814108963 1109.7157922371516 360.240814108963L1109.7157922371516 360.240814108963Q1111.6653332486412 360.240814108963 1114.4864337711497 362.02980468421225Q1117.3075342936581 363.79585948285575 1119.8763412735034 366.29585913288355Q1122.468084029954 368.79585878291135 1124.2341388285977 371.5481519756026Q1126.000193627241 374.27750939168806 1126.000193627241 376.22705040317754L1126.000193627241 376.22705040317754Q1126.000193627241 378.63530694678235 1124.876340573559 380.6536552880893Q1123.7524875198767 382.6720036293961 1122.0552400510505 384.3692510982224Q1120.3579925822241 386.04356279044276 1118.4313873473402 387.5114524932114Q1116.5047821124567 388.95640641937433 1114.8763419734478 390.24080990929684L1114.8763419734478 390.24080990929684Q1114.7157915372072 390.24080990929684 1114.2341402284865 390.5619107817775Q1113.7524889197653 390.88301165425815 1113.4313880472846 391.0435620904985L1113.4313880472846 391.0435620904985Q1113.2708376110445 391.2041125267388 1112.6974431959006 391.7775069418828Q1112.1469845573624 392.35090135702677 1111.5047828124011 392.9931031019881Q1110.839645290834 393.6353048469493 1110.2891866522955 394.2775065919106Q1109.7157922371516 394.9197083368719 1109.5552418009115 395.0802587731121L1109.5552418009115 395.0802587731121Q1109.0735904921903 395.5619100818331 1107.6974438958448 396.61695580569807Q1106.344233076105 397.67200152956303 1104.715792937096 398.86466191306255Q1103.1102885746927 400.08025807316784 1101.7341419783472 401.1353037970328Q1100.3579953820017 402.19034952089777 1099.8763440732805 402.5114503933784L1099.8763440732805 402.5114503933784L1099.2341423283192 403.79585388330094Q1098.9130414558388 404.43805562826225 1098.683683689781 406.6169544058094Q1098.4313901471178 408.79585318335654 1098.1102892746371 411.525210599442Q1097.7891884021565 414.27750379213313 1097.5368948594933 417.0986043146416Q1097.3075370934357 419.91970483715005 1097.3075370934357 421.68575963579366L1097.3075370934357 421.68575963579366Q1097.3075370934357 421.8463100720339 1097.4680875296758 422.0068605082742L1097.4680875296758 422.0068605082742Q1097.7891884021565 422.32796138075486 1097.949738838397 422.32796138075486L1097.949738838397 422.32796138075486Q1099.2341423283192 422.32796138075486 1100.3579953820017 421.2041083270727Q1101.5047842122895 420.0802552733904 1102.789187702212 419.5986039646694L1102.789187702212 419.5986039646694L1128.591936383692 395.72246051807343L1135.1974400461509 385.5619114817219Q1136.0001922273523 384.4380584280396 1138.33964144114 383.061911831694Q1140.6790906549274 381.70870101195425 1143.110282975138 381.61695790553114Q1145.5185395187427 381.5481505757139 1147.3763374238092 383.1536549381171Q1149.2341353288757 384.75915930052025 1149.2341353288757 389.4380577280952ZM1103.1102885746927 383.7958566830783L1113.7524889197653 376.86925214813886Q1114.5552411009671 376.22705040317754 1114.3946906647266 374.91971113664925Q1114.2341402284865 373.63530764672674 1113.500195377102 372.6720050292848Q1112.7891863023235 371.7087024118429 1111.6653332486412 371.4564088691796Q1110.5185444183533 371.22705110312194 1109.5552418009115 372.6720050292848L1109.5552418009115 372.6720050292848Q1109.0735904921903 373.3142067742461 1107.8579943320851 375.2408120091299Q1106.6653339485856 377.1903530206195 1105.4497377884804 379.20870136192633Q1104.2341416283748 381.22704970323326 1103.4313894471734 382.6720036293961Q1102.628637265972 384.11695755555894 1103.1102885746927 383.7958566830783L1103.1102885746927 383.7958566830783ZM1194.0735785931365 409.7591558007985L1194.0735785931365 409.7591558007985Q1193.913028156896 409.7591558007985 1191.8946798155891 413.3142011746913Q1189.8763314742823 416.84631077197827 1186.4818365366298 421.04355789083235Q1183.0873415989774 425.2408050096864 1178.5001862778254 428.7958503835792Q1173.9130309566735 432.3279599808662 1168.7524812203774 432.3279599808662L1168.7524812203774 432.3279599808662Q1161.6423904725918 432.3279599808662 1156.8946847151997 427.99309820237755Q1152.1240431812016 423.63530064728315 1152.1240431812016 416.0435585907766L1152.1240431812016 416.0435585907766Q1151.802942308721 412.190348121009 1153.1790889050665 406.84631217186694Q1154.5552355014122 401.5252119993307 1157.2157855876803 395.81420362449654Q1159.8763356739485 390.0802594730565 1163.660738813899 384.6903519707029Q1167.445141953849 379.27750869174366 1171.8029395089434 375.3325551155529Q1176.160737064038 371.38760153936227 1180.9313785980362 369.43806052787266Q1185.6790843554281 367.51145529298884 1190.5185332192436 368.79585878291135L1190.5185332192436 368.79585878291135L1190.5185332192436 366.548152675547Q1190.5185332192436 362.3509055566929 1190.2662396765802 357.9243006717813Q1190.0368819105227 353.4747600102639 1189.7845883678592 347.7637516354296Q1189.5552306018017 342.0298074839897 1189.3029370591382 334.5298085339062Q1189.0735792930807 327.0298095838227 1189.0735792930807 316.5481596749905L1189.0735792930807 316.5481596749905Q1189.5552306018017 314.782104876347 1190.7478909853012 314.208710461203Q1191.9634871454064 313.635316046059 1193.4084410715693 313.635316046059L1193.4084410715693 313.635316046059Q1197.1240368817025 313.635316046059 1199.3029356592497 316.0665083662695Q1201.4818344367968 318.4747649098743 1201.9634857455176 322.02981028376706L1201.9634857455176 322.02981028376706Q1201.642384873037 327.51146089254365 1201.73412797946 333.2454050439837Q1201.8029353092775 338.9564134188178 1202.2845866179982 346.2270546028437Q1202.7662379267194 353.4747600102639 1203.8212836505843 362.67200642917356Q1204.8763293744491 371.86925284808325 1206.4818337368524 384.3692510982224Q1208.0873380992557 396.8692493483614 1210.357979983226 413.06190763202784Q1212.6056860905903 429.27750169230006 1215.6790801557622 450.5619023824452L1215.6790801557622 450.5619023824452L1215.6790801557622 456.0435529912218Q1215.6790801557622 457.0068556086638 1214.9451353043778 457.48850691738465Q1214.2341262295993 457.97015822610564 1213.1790805057344 458.22245176876896Q1212.1240347818693 458.4747453114324 1211.0689890580043 458.5435526412496Q1210.0368791107453 458.6352957476727 1209.555227802024 458.6352957476727L1209.555227802024 458.6352957476727Q1207.1240354818137 458.6352957476727 1204.3946780657284 457.2591491513271Q1201.642384873037 455.8830025549815 1201.1607335643162 453.4747460113767L1201.1607335643162 453.4747460113767L1195.1974316468186 410.4013575457597Q1195.1974316468186 409.91970623703884 1194.7845876679148 409.8508989072215Q1194.394679465617 409.7591558007985 1194.0735785931365 409.7591558007985ZM1165.6790871552057 413.3142011746913L1165.6790871552057 413.3142011746913Q1165.6790871552057 413.79585248341226 1165.6102798253883 415.01144864351744Q1165.5185367189654 416.20410902701695 1165.6102798253883 417.51144829354524Q1165.6790871552057 418.79585178346787 1166.0001880276864 419.7591544009097Q1166.321288900167 420.7224570183517 1167.284591517609 420.7224570183517L1167.284591517609 420.7224570183517Q1171.3212882002226 420.883007454592 1175.6102784254997 417.6719987297857Q1179.876332874171 414.43805422837346 1183.4313782480638 409.6903484709812Q1186.9634878453508 404.9197069369831 1189.3029370591382 399.4380563282065Q1191.6423862729257 393.95640571942994 1191.8946798155891 389.59860816433553Q1192.124037581647 385.24081060924124 1189.7845883678592 382.90136139545365Q1187.4451391540717 380.5619121816662 1181.8029381090548 381.86925144819446L1181.8029381090548 381.86925144819446Q1174.8763335741155 387.99310380193236 1170.2662424763575 395.88301095431376Q1165.6790871552057 403.79585388330094 1165.6790871552057 413.3142011746913ZM1220.5185290195775 411.043559290721L1220.5185290195775 410.56190798200004L1226.481830937075 369.116959655392Q1226.8029318095557 367.02980398426786 1228.3396288421416 366.066501366826Q1229.8763258747274 365.08026297277826 1231.8029311096113 365.08026297277826L1231.8029311096113 365.08026297277826Q1235.3579764835038 365.08026297277826 1237.4451321546283 367.0986113140852Q1239.5322878257523 369.116959655392 1241.0001775285211 372.0298032843236L1241.0001775285211 372.0298032843236L1241.1607279647612 372.0298032843236Q1243.0873331996452 372.0298032843236 1244.624030232231 371.29585843293927Q1246.1607272648168 370.56191358155496 1248.4084333721814 370.56191358155496L1248.4084333721814 370.56191358155496Q1253.5689831084771 370.56191358155496 1257.1928358121875 373.7958580829671Q1260.839624292503 377.0298025843792 1263.0873303998676 381.61695790553114Q1265.3350365072322 386.2041132266831 1266.3900822310973 391.54814917582513Q1267.445127954962 396.8692493483614 1267.445127954962 400.88301025436937L1267.445127954962 400.88301025436937Q1267.445127954962 405.72245911818476 1264.945128304934 411.68576103568233Q1262.4451286549063 417.6719987297857 1258.3396246424752 422.99309890232195Q1254.2111848534385 428.3141990748582 1249.0506351171427 431.8463086721452Q1243.8900853808466 435.40135404603797 1238.5689852083103 435.40135404603797L1238.5689852083103 435.40135404603797Q1233.7295363444953 435.40135404603797 1230.2662340770255 433.1536479386735Q1226.8029318095557 430.88300605470334 1224.6240330320086 427.4197037872336Q1222.445134254461 423.9564015197638 1221.4818316370195 419.5986039646694Q1220.5185290195775 415.2408064095751 1220.5185290195775 411.043559290721L1220.5185290195775 411.043559290721ZM1234.0506372169755 411.043559290721L1234.0506372169755 411.525210599442Q1234.3717380894566 413.15365073845095 1234.6928389619368 415.2408064095751Q1235.0368756110236 417.35089785730503 1235.6790773559844 419.0252095495254Q1236.3212791009457 420.7224570183517 1237.5368752610514 421.6169523059763Q1238.7295356445509 422.51144759360096 1241.0001775285211 421.68575963579366L1241.0001775285211 421.68575963579366Q1243.0873331996452 419.7591544009097 1245.5185255198555 417.35089785730503Q1247.9267820634602 414.91970553709444 1250.1056808410074 412.190348121009Q1252.284579618555 409.43805492831785 1253.7295335447177 406.36466086314596Q1255.1744874708804 403.31420257457995 1255.1744874708804 399.9197076369275L1255.1744874708804 399.9197076369275Q1255.8396249924474 394.4380570281509 1254.371735289679 389.85090170699897Q1252.9267813635163 385.24081060924124 1250.266231277248 383.2224622679343Q1247.6056811909796 381.22704970323326 1244.2111862533272 382.74081095921343Q1240.8396270922806 384.27750799179927 1237.4451321546283 391.0435620904985L1237.4451321546283 391.0435620904985Q1235.5185269197443 395.24080920935245 1234.78458206836 400.81420292455215Q1234.0506372169755 406.36466086314596 1234.0506372169755 411.043559290721L1234.0506372169755 411.043559290721ZM1320.4955792440844 429.75915300102105L1320.4955792440844 429.75915300102105Q1318.2478731367203 426.52520849960894 1316.711176104134 420.8142001247747Q1315.1744790715481 415.0802559733348 1313.7983324752029 408.70411007693355Q1312.4451216554628 402.350899957138 1311.298332825175 396.2958549332174Q1310.1744797714925 390.24080990929684 1308.9588836113874 386.61695720558674Q1307.7662232278878 382.99310450187676 1306.298333525119 382.5114531931558Q1304.8533795989563 382.0298018844348 1302.9267743640723 386.8692507482502L1302.9267743640723 386.8692507482502L1288.8900790813475 430.0802538735017Q1288.0873269001456 432.3279599808662 1286.9634738464636 433.2224552684908Q1285.8166850161754 434.11695055611546 1283.2478780363306 434.11695055611546L1283.2478780363306 434.11695055611546Q1281.963474546408 434.11695055611546 1280.495584843639 433.7041065772118Q1279.0506309174764 433.3141983749138 1277.7662274275538 432.4885104171065Q1276.4818239376311 431.68575823590487 1275.5873286500066 430.5619051822227Q1274.692833362382 429.4380521285404 1274.532282926142 427.99309820237755L1274.532282926142 427.99309820237755Q1275.0139342348627 426.04355719088795 1275.4267782137665 420.883007454592Q1275.8166864160642 415.7224577182961 1275.9772368523047 408.95640361959687Q1276.160723065151 402.19034952089777 1276.229530394968 394.69035057081425Q1276.321273501391 387.19035162073084 1276.229530394968 380.6536552880893Q1276.160723065151 374.1169589554477 1275.9772368523047 369.36925319805545Q1275.8166864160642 364.5986116640574 1275.656135979824 363.15365773789443L1275.656135979824 363.15365773789443Q1275.656135979824 361.54815337549127 1275.7478790862472 359.8509059066651Q1275.8166864160642 358.1536584378388 1276.229530394968 356.708704511676Q1276.6423743738717 355.2408148089074 1277.674484321131 354.3692552978885Q1278.7295300449957 353.4747600102639 1280.9772361523603 353.4747600102639L1280.9772361523603 353.4747600102639Q1284.050630217532 353.4747600102639 1286.7111803038003 356.0665027667147Q1289.3717303900683 358.6353097465598 1289.3717303900683 361.54815337549127L1289.3717303900683 361.54815337549127Q1289.3717303900683 365.74540049434535 1288.9588864111645 369.8509045067763Q1288.5689782088668 373.9564085192074 1288.5689782088668 378.15365563806137L1288.5689782088668 378.15365563806137Q1288.5689782088668 380.7224626179065 1288.5689782088668 382.5114531931558Q1288.5689782088668 384.27750799179927 1289.2111799538282 386.8692507482502L1289.2111799538282 386.8692507482502Q1289.692831262549 385.5619114817219 1290.8166843162314 382.35090275691545Q1291.9634731465192 379.11695825550333 1293.3166839662592 375.56191288161057Q1294.6928305626045 372.0298032843236 1295.816683616287 368.88760188933446Q1296.9634724465748 365.74540049434535 1297.445123755296 364.43806122781706L1297.445123755296 364.43806122781706Q1298.568976808978 361.2270525030106 1300.8166829163426 358.2454015442618Q1303.087324800313 355.2408148089074 1306.7799848338402 354.9197139364267L1306.7799848338402 354.9197139364267Q1309.2111771540506 354.7591635001864 1311.2295254953576 356.227053202955Q1313.2478738366642 357.67200712911784 1314.6928277628274 360.01145634290543Q1316.1377816889901 362.3509055566929 1317.101084306432 364.8509052067207Q1318.0873227004797 367.3509048567485 1318.568974009201 369.116959655392L1318.568974009201 369.116959655392L1327.2616333427839 409.2775044920775L1334.0506232180885 427.6719973298969Q1334.211173654329 427.8325477661372 1334.211173654329 428.54355684091576Q1334.211173654329 429.27750169230006 1334.211173654329 429.5986025647807L1334.211173654329 429.5986025647807Q1334.211173654329 431.52520779966454 1333.316678366704 433.38300570473115Q1332.4221830790796 435.24080360979764 1330.174476971715 435.24080360979764L1330.174476971715 435.24080360979764Q1327.422183779024 435.24080360979764 1324.5322759266985 433.7041065772118Q1321.619432297767 432.16740954462585 1320.4955792440844 429.75915300102105ZM1348.8900706820152 429.11695125605974L1348.8900706820152 429.11695125605974Q1347.2616305430063 412.9931003022106 1346.1377774893242 401.5252119993307Q1345.0139244356417 390.0802594730565 1344.2111722544403 382.35090275691545Q1343.4084200732384 374.5986102641686 1342.8350256580945 370.01145494301664Q1342.2616312429507 365.4013638452589 1341.94053037047 363.0848504080772Q1341.6194294979894 360.74540119428974 1341.4588790617493 359.9197132364823Q1341.2983286255087 359.1169610552808 1341.2983286255087 358.95641061904047L1341.2983286255087 358.95641061904047L1341.2983286255087 358.31420887407916Q1341.2983286255087 356.54815407543566 1342.8350256580945 355.33255791533037Q1344.3717226906804 354.1169617552251 1345.9772270530837 354.1169617552251L1345.9772270530837 354.1169617552251Q1348.408419373294 354.1169617552251 1351.229519895803 354.9197139364267Q1354.050620418311 355.745401894234 1355.013923035753 358.31420887407916L1355.013923035753 358.31420887407916Q1356.458876961916 366.22705180306633 1357.03227137706 374.27750939168806Q1357.5827300155981 382.35090275691545 1357.995573994502 390.33255301571984Q1358.3854821968 398.31420327452435 1359.119427048184 406.36466086314596Q1359.8533718995684 414.43805422837346 1361.7799771344523 422.32796138075486L1361.7799771344523 422.32796138075486Q1361.7799771344523 422.6719980298413 1362.0322706771155 423.63530064728315Q1362.261628443173 424.5986032647251 1362.5139219858363 425.7224563184073Q1362.7432797518943 426.8463093720896 1362.9038301881344 427.8325477661372Q1363.064380624375 428.7958503835792 1363.064380624375 429.11695125605974L1363.064380624375 429.11695125605974L1363.064380624375 429.4380521285404Q1363.064380624375 429.5986025647807 1363.224931060615 429.75915300102105L1363.224931060615 429.75915300102105Q1363.224931060615 431.68575823590487 1361.4588762619717 433.63529924739447Q1359.6928214633283 435.5619044822783 1357.7432804518387 435.24080360979764L1357.7432804518387 435.24080360979764Q1357.2616291431175 435.0802531735573 1355.403831238051 434.66740919465366Q1353.5689691095902 434.2775009923558 1352.9038315880232 433.9564001198751L1352.9038315880232 433.9564001198751Q1352.422180279302 433.7958496836348 1351.6194280981006 433.2224552684908Q1350.8166759168992 432.64906085334684 1350.0827310655147 432.0068591083855Q1349.371721990736 431.3646573634242 1348.8900706820152 430.5619051822227Q1348.408419373294 429.75915300102105 1348.8900706820152 429.11695125605974ZM1339.853374699346 311.5481603749348L1339.853374699346 311.5481603749348Q1339.853374699346 310.4243073212526 1341.7111726044125 309.529812033628Q1343.568970509479 308.63531674600335 1344.532273126921 308.63531674600335L1344.532273126921 308.63531674600335Q1346.9405296705256 308.63531674600335 1349.9221806292746 310.0114633423489Q1352.9038315880232 311.3876099386945 1352.9038315880232 314.13990313138567L1352.9038315880232 314.13990313138567Q1352.9038315880232 316.86926054747113 1352.1928225132444 317.83256316491304Q1351.45887766186 318.79586578235495 1348.7295202457747 318.79586578235495L1348.7295202457747 318.79586578235495Q1345.8166766168436 318.79586578235495 1342.8350256580945 316.86926054747113Q1339.853374699346 314.9426553125873 1339.853374699346 311.5481603749348Z " fill="#fbf8be" transform="matrix(0.6418602468237203,0,0,0.6418602468237203,0,53.75971893352542)"/></g></svg>